<svg version="1.2" xmlns="http://www.w3.org/2000/svg" viewBox="0 0 210 203" width="210" height="203"><style>.s0{fill:#90cb45}.s1{fill:#ffffff}</style><path class="s0" d="m209.9 202.1h-209.5v-201.9h209.5z" /><path class="s1" d="m128.1 122v22.7h-14.1v-33.1c0-4.1-1.6-6-3.3-7.2c-1.9-1.1-4.1-1.4-5-1.6q-0.3 0-0.3 0q-0.2 0-0.3 0c-0.3 0.2-0.7 0.2-1 0.2c-0.9 0.1-2.1 0.4-3.2 1c-2.2 1.2-4.3 2.9-4.3 7.6v33.1h-13.9v-22.7c0-11 5.7-17.1 11.4-19.7c0.9-0.5 1.6-0.9 2.5-1.2c-0.9-0.3-1.6-0.6-2.5-1c-5.7-2.8-11.4-8.8-11.4-19.8v-22.7h1.8c0.1 0 2.9 0 6 1.5c3 1.5 6.1 4.8 6.1 10.7q0 10.5 0 20.9c0 4.1 1.6 5.8 3.5 7.2c1.8 1.1 4.1 1.4 5 1.4q0.1 0 0.3 0q0.1 0 0.3 0c0.3 0 0.6 0 1 0c0.9-0.1 2.1-0.4 3.1-1c2.2-1.2 4.2-3.1 4.2-7.6v-0.1v-20.8c0-5.9 3.2-9.2 6.3-10.7c2.9-1.5 5.9-1.5 6-1.5h1.8v22.7q0 0.2 0 0.3v0.2v0.1c-0.2 10.7-6 16.5-11.4 19.2c-0.9 0.4-1.8 0.7-2.5 1c0.7 0.3 1.6 0.7 2.5 1.2c5.5 2.6 11.4 8.7 11.4 19.7z" /></svg>